<svg xmlns="http://www.w3.org/2000/svg" xmlns:xlink="http://www.w3.org/1999/xlink"><symbol fill="none" viewBox="0 0 16 16" id="arrow-left"><path d="M15 8H1m7 7L1 8l7-7" stroke="#fff" stroke-width="2" stroke-linecap="round" stroke-linejoin="round"/></symbol><symbol fill="none" viewBox="0 0 16 16" id="arrow-right"><path d="M1 8h14M8 1l7 7-7 7" stroke="#fff" stroke-width="2" stroke-linecap="round" stroke-linejoin="round"/></symbol><symbol viewBox="0 0 11 20" id="fb"><path fill-rule="evenodd" clip-rule="evenodd" d="M11 0H8a5 5 0 00-5 5v3H0v4h3v8h4v-8h3l1-4H7V5a1 1 0 011-1h3V0z"/></symbol><symbol fill="none" viewBox="0 0 20 20" id="search"><path clip-rule="evenodd" d="M9 17A8 8 0 109 1a8 8 0 000 16z"/><path d="M19 19l-4.35-4.35"/></symbol><symbol viewBox="0 0 20 17" id="twitter"><path fill-rule="evenodd" clip-rule="evenodd" d="M20 .01a9.91 9.91 0 01-2.855 1.39A4.073 4.073 0 0010 4.128v.909A9.69 9.69 0 011.818.918S-1.818 9.1 6.364 12.737A10.582 10.582 0 010 14.555c8.182 4.545 18.182 0 18.182-10.455a4.056 4.056 0 00-.073-.754A7.018 7.018 0 0020 .009z"/></symbol></svg>